<?xml version="1.0" standalone="no"?>
<!DOCTYPE svg PUBLIC "-//W3C//DTD SVG 20010904//EN"
 "http://www.w3.org/TR/2001/REC-SVG-20010904/DTD/svg10.dtd">
<svg version="1.0" xmlns="http://www.w3.org/2000/svg"
 width="560.000000pt" height="560.000000pt" viewBox="0 0 560.000000 560.000000"
 preserveAspectRatio="xMidYMid meet">

<defs>
  <clipPath id="roundedClip">
    <rect width="560" height="560" rx="30" ry="40"/>
  </clipPath>
</defs>



<rect width="100%" height="100%" fill="#fff" clip-path="url(#roundedClip)"/>

<g transform="translate(0.000000,560.000000) scale(0.100000,-0.100000)"
fill="#000" stroke="none" >
<path d="M10 2800 l0 -2800 2855 0 2855 0 0 2800 0 2800 -2855 0 -2855 0 0
-2800z m1138 1168 c8 -11 174 -432 257 -653 20 -55 194 -509 235 -614 15 -39
19 -42 28 -25 9 18 242 619 412 1064 45 118 87 221 92 228 8 9 75 12 272 12
143 0 266 -4 272 -8 12 -7 19 -77 59 -537 14 -159 30 -333 35 -385 5 -52 14
-151 20 -220 13 -157 37 -423 50 -560 6 -58 14 -159 20 -225 5 -66 14 -167 20
-225 5 -58 9 -113 10 -122 0 -17 -19 -18 -259 -18 l-258 0 -6 53 c-4 28 -9 90
-12 137 -3 47 -10 126 -15 175 -5 50 -14 160 -20 245 -6 85 -17 229 -25 320
-8 91 -17 211 -20 266 -4 56 -10 116 -14 135 l-8 34 -11 -25 c-6 -14 -97 -272
-202 -575 -106 -302 -208 -596 -228 -653 l-36 -102 -155 2 -155 3 -23 60 c-26
70 -84 236 -293 835 -83 239 -153 437 -156 439 -2 2 -6 2 -9 -1 -5 -5 -23
-205 -45 -493 -5 -71 -14 -182 -19 -245 -6 -63 -13 -149 -16 -190 -14 -183
-26 -329 -32 -372 l-6 -48 -258 0 -259 0 0 28 c0 15 4 63 9 107 5 44 14 139
21 210 6 72 15 175 20 230 6 55 17 181 25 280 8 99 19 225 25 280 5 55 17 181
25 280 9 99 20 223 25 275 5 52 19 205 30 340 12 135 23 251 25 258 3 9 67 12
273 12 204 0 272 -3 280 -12z m2742 -458 l5 -464 72 84 c39 47 185 220 323
385 138 165 283 337 322 383 l70 82 304 0 c173 0 305 -4 308 -9 6 -9 -92 -128
-399 -486 -200 -235 -491 -580 -498 -592 -5 -7 53 -80 151 -190 164 -185 378
-427 617 -697 77 -88 149 -169 160 -181 11 -13 44 -50 73 -84 l54 -61 -360 0
-360 0 -93 108 c-52 59 -98 112 -104 118 -5 6 -33 38 -61 70 -28 33 -117 136
-199 229 -81 94 -200 231 -264 305 l-116 134 -3 -482 -2 -482 -260 0 -260 0 0
1143 c0 629 3 1147 7 1151 4 3 119 5 257 4 l251 -3 5 -465z"/>
</g>
</svg>
